<?xml version="1.0" encoding="UTF-8"?><svg id="Ebene_1" xmlns="http://www.w3.org/2000/svg" xmlns:xlink="http://www.w3.org/1999/xlink" viewBox="0 0 536.92 91.87"><defs><style>.cls-1{fill:#fff;}.cls-2{font-family:Corbel, Corbel;}.cls-2,.cls-3,.cls-4{fill:#bfbdbd;}.cls-5{letter-spacing:0em;}.cls-6{fill:#3aaa35;}.cls-6,.cls-7,.cls-8,.cls-4{font-family:Corbel-Italic, Corbel;font-style:italic;}.cls-9{letter-spacing:-.05em;}.cls-10{clip-path:url(#clippath);}.cls-3{font-family:DejaVuSans-ExtraLight, 'DejaVu Sans';font-size:14.35px;font-weight:200;}.cls-11{font-size:89.15px;}.cls-12,.cls-13{fill:none;}.cls-13{stroke:#010101;stroke-miterlimit:10;stroke-width:.85px;}.cls-14{letter-spacing:.03em;}.cls-15{letter-spacing:-.04em;}.cls-7{letter-spacing:-.05em;}.cls-7,.cls-8{fill:#1e1e1c;}.cls-16{fill:#010101;}</style><clipPath id="clippath"><polyline class="cls-12" points="1.87 71.61 1.87 -1.44 531 -1.44 528.21 93.31 359.96 93.31 319.16 93.31 332.67 72.33 186.89 71.61"/></clipPath></defs><path class="cls-1" d="m176.56,42.92l-3.32,10.65c-.02.05-.04.1-.07.15l-.58.9.52,4.65c.03.31-.18.6-.49.66l-4.15.74-2.26,2.06.42,2.93c.05.32-.17.62-.49.68l-13.41,2.45-4.62,2.73c-.09.06-.2.08-.31.08h-3.86c-.19,0-.37-.09-.49-.25l-2.36-3.26-4.2,1.54c-.28.11-.6-.02-.74-.29l-5.64-10.96s-.03-.08-.04-.12l-1.85-6.72s-.02-.07-.02-.11l-.62-7.26c-.02-.23.09-.45.29-.57l3.6-2.13,1.7-4.44c.05-.12.13-.23.25-.3l5.19-3.2,7.21-7.36s.1-.09.16-.12l7.33-3.71c.3-.15.65-.03.8.26l3.95,7.53,1.62-.42c.07-.02.15-.02.22-.02l9.42,1.08c.24.03.44.19.51.42.07.23,0,.48-.19.63l-2.31,1.95,3.49,2.26c.05.04.1.08.14.12l5.1,6.18c.13.16.17.37.11.56Z"/><path class="cls-13" d="m176.56,42.92l-3.32,10.65c-.02.05-.04.1-.07.15l-.58.9.52,4.65c.03.31-.18.6-.49.66l-4.15.74-2.26,2.06.42,2.93c.05.32-.17.62-.49.68l-13.41,2.45-4.62,2.73c-.09.06-.2.08-.31.08h-3.86c-.19,0-.37-.09-.49-.25l-2.36-3.26-4.2,1.54c-.28.11-.6-.02-.74-.29l-5.64-10.96s-.03-.08-.04-.12l-1.85-6.72s-.02-.07-.02-.11l-.62-7.26c-.02-.23.09-.45.29-.57l3.6-2.13,1.7-4.44c.05-.12.13-.23.25-.3l5.19-3.2,7.21-7.36s.1-.09.16-.12l7.33-3.71c.3-.15.65-.03.8.26l3.95,7.53,1.62-.42c.07-.02.15-.02.22-.02l9.42,1.08c.24.03.44.19.51.42.07.23,0,.48-.19.63l-2.31,1.95,3.49,2.26c.05.04.1.08.14.12l5.1,6.18c.13.16.17.37.11.56Z"/><path class="cls-16" d="m133.58,37.04l-1.7,4.44-3.6,2.13c-.2.12-.31.34-.29.57l.62,7.26s0,.07.02.11l1.85,6.72s.02.08.04.12l5.64,10.96c.14.27.46.4.74.29l4.2-1.54,2.36,3.26c.11.16.29.25.49.25h3.86c.11,0,.21-.03.31-.08l4.62-2.73,13.41-2.45c.32-.06.53-.36.49-.68l-.42-2.93,2.26-2.06,4.15-.74c.31-.05.53-.34.49-.66l-.52-4.65.58-.9s.05-.1.07-.15l3.32-10.65c.06-.19.02-.41-.11-.56l-5.1-6.18s-.09-.09-.14-.12l-3.49-2.26,2.31-1.95c.18-.16.26-.4.19-.63-.07-.23-.27-.4-.51-.42l-9.42-1.08c-.07,0-.15,0-.22.02l-1.62.42-3.95-7.53c-.15-.29-.51-.41-.8-.26l-7.33,3.71c-.06.03-.11.07-.16.12l-7.21,7.36-5.19,3.2c-.11.07-.2.17-.25.3Zm3.4,31.28l-5.37-10.43-1.82-6.61-.54-6.38,5.76,3.08,6.49,5.79,11.07,7.45-11,5.61c-.14-.07-.31-.09-.46-.03l-4.13,1.52Zm28.18-6.26c-.15.14-.22.33-.19.53l.38,2.67-12.94,2.37c-.07.01-.14.04-.2.07l-4.57,2.7h-3.39l-2.18-3.01,7.82-3.99,7.1,1.39s.05,0,.07,0c.04,0,.08,0,.12-.02l7.64-2.71-.24-.68-7.55,2.67-6.1-1.19,2.51-1.28c.11-.06.19-.17.2-.3,0-.13-.05-.25-.16-.32l-9.74-6.55,15.88,4.43,7.49,1.43-1.96,1.78Zm-4.88-31.14l7.92.91-1.82,1.53-6.59-2.31.48-.13Zm-20.57,3.61s.08-.06.11-.09l7.19-7.34,6.72-3.39,3.89,7.43c.13.25.41.38.68.3l.24-.06,7.62,2.68c.04.13.11.24.23.32l4.09,2.65,4.83,5.86-3.2,10.27-.49.76-3.76-1.84-.57-1.78c-.04-.13-.15-.22-.28-.24l-4.2-.8-.44-6.8,1.39-2.63,4.35-3.66-.46-.55-4.06,3.42-2.96-5.55c-.04-.08-.12-.14-.2-.17l-7.11-2.37,1.02-5.17-.71-.14-1.08,5.48c-.03.18.07.36.24.41l7.27,2.43,3.01,5.65-1.38,2.61c-.03.06-.04.13-.04.19l.46,7.18c0,.17.13.3.29.33l4.27.81.55,1.72c.03.09.1.17.18.21l3.97,1.95.44,3.93c-2.71-.58-5.5-1.21-6.05-1.43-.17-.33-.68-1.14-2.31-3.36-.03-.04-.06-.07-.1-.09l-14.87-9.5-2.66-8.37-.69.22,2.36,7.42-1.81-1.35-5.91-4.88c-.15-.12-.37-.11-.5.04l-2.7,3.03h-1.13c-.16-.02-.32.1-.36.27l-1.23,5.4.7.16,1.17-5.12,5.19.07v-.72s-3.38-.05-3.38-.05l2.06-2.31,5.66,4.67,2.72,2.04h0s.01,0,.02.02l14.92,9.54c.99,1.36,2.05,2.87,2.21,3.19.02.3.36.51,5.67,1.64l-2.71.48c-.11.02-.22.07-.3.15l-7.99-1.52-17.91-5-6.42-5.73s-.04-.04-.07-.05l-5.83-3.11,3.11-1.84c.12-.07.21-.18.26-.3l1.7-4.44,5.08-3.14Z"/><path class="cls-16" d="m151.09,40.16l.68-.24-1.74-4.93.6-3.22-.71-.13-.62,3.32c-.01.06,0,.13.01.19l1.78,5.02Z"/><text class="cls-3" transform="translate(9.28 89.19)"><tspan class="cls-14" x="0" y="0">THE EEG VISUALIZ</tspan><tspan class="cls-9" x="138.31" y="0">A</tspan><tspan class="cls-14" x="147.38" y="0">TION TOOL</tspan><tspan class="cls-5" x="229.57" y="0">B</tspan><tspan class="cls-15" x="239.07" y="0">O</tspan><tspan class="cls-14" x="249.81" y="0">X</tspan></text><g class="cls-10"><text class="cls-11" transform="translate(-1.35 69.5)"><tspan class="cls-8" x="0" y="0">Unf </tspan><tspan class="cls-7" x="149.49" y="0" xml:space="preserve">  </tspan><tspan class="cls-8" x="176.27" y="0">ld</tspan><tspan class="cls-6" x="243.35" y="0">Makie</tspan><tspan class="cls-2" x="459.14" y="0">.</tspan><tspan class="cls-4" x="482.69" y="0">jl</tspan></text></g></svg>